<svg xmlns="http://www.w3.org/2000/svg" xmlns:xlink="http://www.w3.org/1999/xlink" version="1.1" id="Layer_1" x="0px" y="0px" xml:space="preserve" viewBox="54.02 382.5 829.48 162.5"><style type="text/css">	.st0{fill:#1D1D1B;}	.st1{fill-rule:evenodd;clip-rule:evenodd;fill:#FCBE00;}	.st2{fill-rule:evenodd;clip-rule:evenodd;fill:#1D1D1B;}	.st3{fill:#FABD01;}</style><g>	<path class="st0" d="M380,395c0-6.9,6-12.5,12.8-12.5s12.8,5.6,12.8,12.5v36c10.3-7.5,22.9-10.4,36.4-10.4   c36.9,0,62.1,26.7,62.1,61.4s-27.8,62.9-62.1,62.9S380,516.6,380,481.9V395z M478.6,482.7c0-20.1-16.3-36.4-36.4-36.4   s-36.4,16.3-36.4,36.4c0,20.1,16.3,36.4,36.4,36.4S478.6,502.8,478.6,482.7z"></path>	<path class="st1" d="M349.4,468.7c-0.3-0.6-0.5-1.2-0.8-1.8c-6.2-12.9-19.9-21.6-35.4-20.5c-18.4,1.3-33.1,16.5-33.8,34.9   c-0.8,20.8,15.8,37.9,36.4,37.9c11.4,0,21.6-5.2,28.3-13.5c10.3-5.6,22.6,3.9,19.6,15.4l-0.4,1.7c-1.1,1.3-2.3,2.6-3.5,3.8   c-11.2,11.2-26.8,18.2-43.9,18.2c-34.8,0-62.9-28.6-62.1-63.6c0.8-33,27.6-59.8,60.6-60.6c29.3-0.7,54.1,18.9,61.4,45.8   c0.2,0.8,0.4,1.6,0.6,2.4c0.5,2.2,0.9,4.4,1.1,6.7c-0.3,9.5-7,17-15.2,17l-43.7,0c-6,0-11.3-4.3-12-10.2c-0.5-3.9,0.9-7.5,3.4-10   c2.2-2.1,5.1-3.5,8.4-3.5H349.4z"></path>	<path class="st2" d="M602.7,468.7c-0.3-0.6-0.5-1.2-0.8-1.8c-5.9-12.2-18.4-20.6-32.8-20.6c-20.1,0-36.4,16.3-36.4,36.4   c0,20.1,16.3,36.4,36.4,36.4c11.4,0,21.6-5.2,28.3-13.5c10.3-5.6,22.6,3.9,19.6,15.4l-0.4,1.7c-1.1,1.3-2.3,2.6-3.5,3.8   c-11.2,11.2-26.8,18.2-43.9,18.2c-34.8,0-62.9-28.6-62.1-63.6c0.8-33,27.6-59.8,60.6-60.6c29.3-0.7,54.1,18.9,61.4,45.8   c0.2,0.8,0.4,1.6,0.6,2.4c0.5,2.2,0.9,4.4,1.1,6.7c-0.3,9.5-7,17-15.2,17h-44c-6.5,0-11.8-5.3-11.8-11.8c0-3.3,1.3-6.2,3.5-8.4   c2.2-2.1,5.1-3.5,8.4-3.5H602.7z"></path>	<path class="st2" d="M729.1,468.7c-0.3-0.6-0.5-1.2-0.8-1.8c-5.9-12.2-18.4-20.6-32.8-20.6c-20.1,0-36.4,16.3-36.4,36.4   c0,20.1,16.3,36.4,36.4,36.4c11.4,0,21.6-5.2,28.3-13.5c10.3-5.6,22.6,3.9,19.6,15.4l-0.4,1.7c-1.1,1.3-2.3,2.6-3.5,3.8   c-11.2,11.2-26.8,18.2-43.9,18.2c-34.8,0-62.9-28.6-62.1-63.6c0.8-33,27.6-59.8,60.6-60.6c29.3-0.7,54.1,18.9,61.4,45.8   c0.2,0.8,0.4,1.6,0.6,2.4c0.5,2.2,0.9,4.4,1.1,6.7c-0.3,9.5-7,17-15.2,17h-44c-6.5,0-11.8-5.3-11.8-11.8c0-3.3,1.3-6.2,3.5-8.4   c2.2-2.1,5.1-3.5,8.4-3.5H729.1z"></path>	<path class="st0" d="M788.7,488.6c0-2.6,2.3-4.7,4.8-4.7c2.5,0,4.8,2.1,4.8,4.7v13.5c3.9-2.8,8.6-3.9,13.7-3.9   c13.8,0,23.3,10,23.3,23c0,13-10.4,23.6-23.3,23.6s-23.3-10.6-23.3-23.6V488.6z M825.7,521.5c0-7.5-6.1-13.7-13.7-13.7   s-13.7,6.1-13.7,13.7c0,7.5,6.1,13.7,13.7,13.7S825.7,529.1,825.7,521.5z"></path>	<path class="st2" d="M873.2,516.3c-0.1-0.2-0.2-0.5-0.3-0.7c-2.2-4.6-6.9-7.7-12.3-7.7c-7.5,0-13.7,6.1-13.7,13.7   c0,7.5,6.1,13.7,13.7,13.7c4.3,0,8.1-2,10.6-5c3.9-2.1,8.5,1.4,7.3,5.8l-0.2,0.6c-0.4,0.5-0.9,1-1.3,1.4c-4.2,4.2-10,6.8-16.5,6.8   c-13.1,0-23.6-10.7-23.3-23.9c0.3-12.4,10.4-22.4,22.7-22.7c11-0.3,20.3,7.1,23,17.2c0.1,0.3,0.2,0.6,0.2,0.9   c0.2,0.8,0.3,1.7,0.4,2.5c-0.1,3.5-2.6,6.4-5.7,6.4h-16.5c-2.4,0-4.4-2-4.4-4.4c0-1.2,0.5-2.3,1.3-3.1c0.8-0.8,1.9-1.3,3.1-1.3   H873.2z"></path>	<circle class="st1" cx="772.9" cy="531.9" r="12.8"></circle></g><g>	<g>		<g>			<path class="st3" d="M107.1,421.2c6.3-3.7,12.6-7.4,19-11c0.4-0.3,0.9-0.4,1.4-0.7c-0.5,1.7-0.8,3.4-1.4,5     c-1.3,3.6-1,6.8,1.4,9.9c0.4,0.5,0.6,1,1,1.5c-1.3,1.3-2.6,2.5-3.7,3.5c0.8,1,1.6,1.9,2.1,2.8c3.3,6.5,6,13.2,8.3,20.1     c1.2,3.6,3,7.1,1.5,11.1c-0.1,0-0.2,0.1-0.3,0.1c-2.2,0.4-3.2,2.5-1.9,4.3c0.9,1.2,1.7,2.6,2.7,3.7c0.9,1,1.9,1.9,3.1,2.6     c1.1,0.7,1.7,0.2,1.6-1.1c-0.1-1.2-0.4-2.3-0.6-3.5c-0.1-1.1-0.6-2.2-0.1-3.2c1.5,0,2.9,0,4.5,0c-0.1,1.1-0.2,2.2-0.3,3.3     c-0.2,1.3-0.4,2.5-0.6,3.8c-0.1,0.8,0.5,1.1,1.1,0.8c0.8-0.3,1.6-0.7,2.1-1.3c1.3-1.4,2.4-2.9,3.6-4.4c1.8-2.2,1.4-4.5-2-5.4     c-0.1-1.3-0.4-2.7-0.2-4c0.2-1.7,0.7-3.5,1.3-5.2c1.8-5,3.6-10,5.7-14.9c1.4-3.4,2.5-7,5.3-9.7c-1.3-1.2-2.5-2.4-3.8-3.6     c0.6-0.9,1.2-1.8,1.7-2.6c1.3-1.9,1.8-4,1.2-6.2c-0.6-2.5-1.4-5-2.2-7.5c1.8,1,3.6,1.9,5.4,3c3.1,1.8,6.2,3.6,9.3,5.4     c2,1.1,3.9,2.3,5.9,3.4c-4.9,2.1-9.8,4.1-14.5,6.1c1.2,2,2.5,3.8,3.6,5.8c1.7,3.2,1.9,6.8,1.9,10.4c0,3.2,0,6.5-1.2,9.6     c6.7,7.4,9.3,15.8,5.8,25.6c5-1.8,9.4-4.3,13.7-7.2c3.4-2.3,6.6-4.7,9.9-7c0,0.2,0.1,0.4,0.1,0.6c0,8.7,0.1,17.5-0.1,26.2     c-0.1,3.2-1.7,5.8-4.5,7.4c-6.2,3.6-12.4,7.1-18.5,10.7c-6.6,3.8-13.2,7.7-19.9,11.6c-2.6,1.5-5.2,2.9-7.8,4.4     c-0.5,0.3-1.2,0.5-1.7,0.7c0.6-2.8,1.3-5.7,1.8-8.5c0.1-0.7,0.5-0.8,1.1-1c1.4-0.4,2.9-0.7,4.1-1.5c4.7-2.7,7.9-6.8,10.3-11.6     c1.1-2.2,2.3-4.5,0.5-7.1c0.6,0,1.1-0.1,1.6-0.1c1.2-0.1,2.5-0.1,3.3-1.4c1.1-2,2-4.1,2.2-6.4c0.2-2.4-0.5-3.8-2.7-4.8     c0.1-0.2,0.2-0.3,0.3-0.4c2.3-4,4.2-8.2,5.2-12.8c0.7-3.3-0.1-4.9-2.7-5.9c-0.2-4.3-3.9-6.7-5.5-10.3c-0.4,2.7-1.5,5-2.9,7.2     c-3,4.7-6.1,9.3-9.2,14c-1.3,1.9-2.7,3.8-4.8,5.1c-4.5,2.7-9.8,1.9-13-2.4c-4-5.5-7.7-11.2-11.4-16.9c-1.4-2.1-2.5-4.4-2.7-6.9     c-1,1.5-2,3-3,4.4c-1.2,1.8-2.6,3.5-2.5,5.8c-2.2,0.6-2.9,1.6-2.9,3.8c0,1.2,0.2,2.4,0.5,3.6c1,4.2,2.9,8.1,5.1,11.8     c-2.2,1-2.8,1.9-2.7,4.3c0.1,2.6,1.1,4.8,2.4,7c0.6,0.9,1.3,1.3,2.4,1.3c0.7,0,1.5,0,2.2,0c-1.1,1.3-0.9,2.6-0.6,3.9     c1,4.3,3.5,7.8,6.5,10.9c2.6,2.7,5.5,5.1,9.5,5.4c0.2,0,0.5,0.3,0.5,0.6c0.6,2.9,1.2,5.8,1.8,8.7c-1.3-0.6-2.7-1.2-3.9-1.9     c-3.1-1.8-6.3-3.6-9.4-5.4c-3.5-2-7-4-10.5-6.1c-3.4-2-6.9-4-10.3-5.9c-3.5-2-7-4-10.5-6.1c-1.8-1.1-3.6-2.1-5.1-3.5     c-1.8-1.6-2.6-3.8-2.6-6.2c0-8.4,0-16.8,0-25.2c0-0.4,0-0.9,0.1-1.3c7.3,5.5,14.7,10.9,23.6,14.3c-3.5-10-0.9-18.3,5.8-25.7     c-0.2-0.5-0.4-1-0.5-1.4c-0.8-3.5-0.8-7-0.6-10.5c0.1-1.8,0.4-3.7,0.9-5.5c0.8-3.1,2.5-5.8,4.8-8.2     C116.9,425.4,112,423.3,107.1,421.2z M118.4,442.8c0,3.8,0.5,5.6,2.3,8.1c3.3,4.4,7.8,7.5,12.4,10.4c0.6,0.4,0.9,0,0.8-0.6     c-0.1-1.2-0.2-2.4-0.6-3.4c-1.7-4.8-3.3-9.7-5.2-14.4c-1.3-3.4-2.9-6.6-4.5-9.9c-0.5-1.1-1.4-1.2-2.2-0.3     c-0.2,0.2-0.4,0.5-0.6,0.8C119.1,436.5,118.6,439.9,118.4,442.8z M167.7,444.7c-0.1-4-0.6-6.7-1.6-9.3c-0.4-1-1-2-1.7-2.8     c-0.6-0.8-1.4-0.6-1.9,0.2c-0.2,0.3-0.4,0.5-0.5,0.8c-3.6,7.5-6.8,15.2-9.2,23.2c-0.4,1.3-0.5,2.6-0.7,4     c-0.1,0.7,0.3,0.9,0.9,0.5c3.9-2.4,7.6-5.1,10.8-8.5C166.2,450.2,167.8,447.3,167.7,444.7z"></path>			<path class="st0" d="M107.1,421.2c4.9,2.1,9.8,4.1,14.8,6.3c-2.3,2.4-4,5.1-4.8,8.2c-0.5,1.8-0.8,3.6-0.9,5.5     c-0.2,3.5-0.2,7.1,0.6,10.5c0.1,0.5,0.3,0.9,0.5,1.4c-6.7,7.3-9.4,15.7-5.8,25.7c-8.9-3.4-16.3-8.8-23.6-14.3     c-2.6-2.1-5.2-4.2-7.8-6.4c-6.9-5.8-13.5-12-19-19.3c-2.7-3.5-4.2-7.5-4.9-11.8c-0.5-3.4-1.5-6.8-2-10.2c-0.3-1.6-0.2-3.3,0.1-5     c0.4-2.7,2.4-3.8,4.9-4.2c3.1-0.5,6.2-0.1,9.3,0.6c8.7,1.8,17.1,4.8,25.4,7.9c4.4,1.7,8.7,3.4,13,5.2     C106.9,421.2,107,421.2,107.1,421.2z"></path>			<path class="st0" d="M198.3,464.5c-3.3,2.4-6.5,4.8-9.9,7c-4.3,2.8-8.7,5.4-13.7,7.2c3.5-9.8,0.9-18.2-5.8-25.6     c1.2-3.1,1.1-6.3,1.2-9.6c0-3.6-0.2-7.1-1.9-10.4c-1.1-2-2.4-3.9-3.6-5.8c4.7-2,9.6-4.1,14.5-6.1c4.2-1.6,8.4-3.3,12.6-4.9     c8.6-3.3,17.2-6.4,26.2-8.2c3-0.6,6.1-1,9.2-0.5c3.1,0.5,4.9,2.4,5.1,5.6c0.2,3-0.5,5.9-1.1,8.9c-0.6,2.9-1.2,5.8-1.9,8.7     c-0.8,3.5-2.8,6.3-4.9,9.1c-4.9,6.3-10.5,11.8-16.6,16.9C204.6,459.3,201.4,461.9,198.3,464.5z"></path>			<path class="st0" d="M140.1,526c-0.6-2.9-1.2-5.8-1.8-8.7c0-0.2-0.3-0.5-0.5-0.6c-4-0.4-6.9-2.7-9.5-5.4c-3-3.1-5.4-6.6-6.5-10.9     c-0.3-1.3-0.4-2.6,0.6-3.9c-0.7,0-1.5,0-2.2,0c-1.1,0-1.8-0.4-2.4-1.3c-1.3-2.2-2.3-4.4-2.4-7c-0.1-2.4,0.5-3.4,2.7-4.3     c-2.2-3.7-4-7.6-5.1-11.8c-0.3-1.2-0.4-2.4-0.5-3.6c-0.1-2.3,0.7-3.2,2.9-3.8c-0.1-2.3,1.3-4.1,2.5-5.8c1-1.5,2-2.9,3-4.4     c0.3,2.5,1.4,4.8,2.7,6.9c3.7,5.7,7.4,11.4,11.4,16.9c3.2,4.4,8.6,5.2,13,2.4c2.1-1.3,3.5-3.2,4.8-5.1c3.1-4.6,6.2-9.3,9.2-14     c1.4-2.2,2.6-4.5,2.9-7.2c1.6,3.6,5.2,6,5.5,10.3c2.6,1,3.4,2.6,2.7,5.9c-0.9,4.6-2.8,8.8-5.2,12.8c-0.1,0.1-0.2,0.3-0.3,0.4     c2.2,1.1,2.9,2.4,2.7,4.8c-0.2,2.3-1.1,4.4-2.2,6.4c-0.8,1.3-2,1.3-3.3,1.4c-0.5,0-1,0.1-1.6,0.1c1.8,2.6,0.6,4.9-0.5,7.1     c-2.3,4.8-5.6,8.8-10.3,11.6c-1.2,0.7-2.7,1.1-4.1,1.5c-0.6,0.2-1,0.3-1.1,1c-0.6,2.9-1.2,5.7-1.8,8.5c-0.6,2.8-1.3,5.6-1.9,8.4     c-0.3,1.3-0.6,2.5-0.9,4c-1-4.3-1.9-8.4-2.8-12.4C140.2,526.1,140.1,526.1,140.1,526L140.1,526z M146.8,501.5     c-0.1,0-0.2,0-0.4-0.1c0.1,0.1,0.2,0.1,0.2,0.2c1.7,1.2,3.3,2.3,5,3.5c1.6,1.1,3.2,1.1,4.9,0.3c2.2-1.1,2.8-2.5,1.4-4.6     c-0.2,0.1-0.4,0.2-0.5,0.3c-1.7,1.2-3.5,1.8-5.6,1.4C150.1,502.2,148.5,501.9,146.8,501.5z M139.3,501.5     c-0.8,0.2-1.6,0.5-2.5,0.6c-2.6,0.5-5.3,0.9-7.7-0.7c-0.3-0.2-0.7-0.4-1-0.7c-0.9,1.2-1,2.4-0.4,3.3c0.9,1.4,4.1,2.4,5.5,1.6     c2.1-1.2,4.1-2.7,6.2-4.1c0.1-0.1,0.2-0.1,0.2-0.2C139.6,501.5,139.5,501.5,139.3,501.5z M153.6,480.6c0-0.1,0-0.1-0.1-0.2     c0,0-0.1,0-0.1,0C153.5,480.5,153.5,480.6,153.6,480.6c1.5,1.3,2.9,2.7,4.4,3.9c0.7,0.6,1.4,0.6,2.1,0c2.1-1.8,4.4-3.5,6.4-5.4     c2.1-2,1.7-4.8-0.7-6.5c-0.3,0.5-0.6,0.9-1,1.4c-1.6,2.1-3.1,4.1-4.7,6.2c-1.1,1.4-2.5,1.6-4,1.2     C155.3,481.1,154.4,480.9,153.6,480.6z M120.1,472.6c-2.4,2-2.7,4.6-0.4,6.7c2,1.9,4.2,3.6,6.3,5.2c0.4,0.3,1.2,0.4,1.7,0.2     c2-0.9,3.4-2.6,5.1-4.3c-1.2,0.4-2.1,0.7-3,0.9c-1.4,0.3-2.8,0.1-3.8-1.1c-0.5-0.5-0.9-1.1-1.4-1.6     C123.1,476.6,121.6,474.6,120.1,472.6z M119.7,487.4c-0.5,1.1-1.1,1.9-1.3,2.7c-0.4,1.9,1.2,2.5,2.4,3.2c0.4,0.3,1.2,0.4,1.6,0.2     c2.8-1.3,5.6-2.7,8.4-4c0-0.1-0.1-0.2-0.1-0.3c-1.4,0.1-2.7,0.3-4.1,0.3C124.1,489.6,121.6,490.1,119.7,487.4z M155.5,489.2     c0,0.1-0.1,0.2-0.1,0.3c2.7,1.3,5.3,2.7,8,4c1.5,0.7,4.2-1,4.3-2.7c0.1-1.2-0.6-2.1-1.5-3c-1.4,1.9-3.3,2-5.3,1.9     C159.1,489.5,157.3,489.3,155.5,489.2z"></path>			<path class="st0" d="M158.5,409.5c0.7,2.5,1.6,5,2.2,7.5c0.5,2.2,0,4.3-1.2,6.2c-0.6,0.9-1.1,1.7-1.7,2.6     c1.3,1.2,2.6,2.4,3.8,3.6c-2.8,2.7-3.9,6.3-5.3,9.7c-2.1,4.9-3.9,9.9-5.7,14.9c-0.6,1.7-1.1,3.4-1.3,5.2c-0.2,1.3,0.1,2.7,0.2,4     c3.3,0.9,3.8,3.1,2,5.4c-1.2,1.5-2.3,3-3.6,4.4c-0.5,0.6-1.4,1-2.1,1.3c-0.6,0.3-1.2-0.1-1.1-0.8c0.1-1.3,0.4-2.5,0.6-3.8     c0.1-1.1,0.2-2.2,0.3-3.3c-1.6,0-3,0-4.5,0c-0.5,1,0,2.1,0.1,3.2c0.2,1.2,0.5,2.3,0.6,3.5c0.1,1.2-0.6,1.8-1.6,1.1     c-1.1-0.7-2.2-1.6-3.1-2.6c-1-1.1-1.8-2.5-2.7-3.7c-1.3-1.8-0.3-3.9,1.9-4.3c0.1,0,0.2-0.1,0.3-0.1c1.5-4-0.3-7.5-1.5-11.1     c-2.3-6.9-5-13.6-8.3-20.1c-0.5-1-1.3-1.8-2.1-2.8c1.1-1,2.4-2.2,3.7-3.5c-0.3-0.5-0.6-1-1-1.5c-2.4-3-2.7-6.3-1.4-9.9     c0.6-1.6,1-3.3,1.4-5c0,0,0,0,0,0c0.1-0.1,0.1-0.1,0.2-0.2c0.8-2.4,1.6-4.8,2.5-7.4c0.7,1.2,1.5,2.4,2,3.5     c0.2,0.3-0.1,0.8-0.2,1.3c-1,3.2-1.9,6.3-2.9,9.5c-1.1,3.3,0,5,2.4,7.8c7.8-5.1,15.6-5.2,23.4,0.1c0.7-1.1,1.6-2.1,2-3.2     c0.4-1.1,0.7-2.4,0.4-3.5c-0.9-3.6-2.2-7.1-3.3-10.6c-0.9-1.9,0.1-3.3,1-4.8c0.2-0.3,0.4-0.6,0.6-1     C156.6,403.9,157.6,406.7,158.5,409.5z"></path>			<path class="st0" d="M147.7,545c0.6-2.6,1.1-4.9,1.6-7.1c0.2-1.1,0.4-2.2,0.7-3.3c0.1-0.4,0.5-0.8,0.8-1     c12.1-7,24.1-13.9,36.2-20.9c4.8-2.7,9.5-5.5,14.3-8.3c3.6-2.2,5.6-5.4,5.7-9.6c0.1-9.6,0-19.2,0-28.8c0-0.8,0.4-1.3,0.9-1.8     c2.4-2,4.7-4,7.2-6c0,0.2,0.1,0.3,0.1,0.5c0,13.4,0.1,26.8,0,40.2c0,4.8-2.4,8.4-6.5,10.8c-10.1,5.8-20.2,11.6-30.2,17.4     c-9.3,5.4-18.6,10.7-27.9,16.1C149.5,543.7,148.7,544.3,147.7,545z"></path>			<path class="st0" d="M138.3,544.7c-4.2-2.4-8.2-4.7-12.1-7c-12-6.9-24-13.8-36-20.8c-4.4-2.5-8.8-5-13.1-7.6     c-3.8-2.3-5.9-5.8-6-10.2c-0.1-13.6,0-27.2,0-40.9c2.6,2.2,5.3,4.4,7.8,6.6c0.2,0.2,0.3,0.8,0.3,1.1c0,9.2,0.1,18.5,0,27.7     c-0.1,5.2,2.2,8.8,6.6,11.4c9.8,5.6,19.6,11.3,29.4,16.9c6.4,3.7,12.8,7.4,19.3,11.1c1.1,0.6,1.7,1.3,1.9,2.5     C136.8,538.5,137.6,541.4,138.3,544.7z"></path>			<path class="st0" d="M192.4,409.7c-2.5,1-5,1.8-7.3,2.9c-1.7,0.8-3,0.7-4.7-0.3c-9.6-5.7-19.3-11.2-29-16.8c-1.8-1-3.6-2-5.5-2.7     c-3.1-1-6.2-0.4-9,1.2c-11,6.4-22,12.7-33,19c-0.4,0.2-1,0.2-1.4,0.1c-3-1.1-5.9-2.3-9-3.4c14.5-8.3,28.8-16.6,43.2-24.9     c3.9-2.3,8.1-2.4,12.1-0.2c6,3.3,11.9,6.8,17.8,10.2c8.4,4.8,16.7,9.6,25,14.5C191.9,409.3,192.1,409.5,192.4,409.7z"></path>			<path class="st3" d="M154,406.7c1.1,3.5,2.3,7,3.3,10.6c0.3,1.1,0,2.4-0.4,3.5c-0.4,1.1-1.3,2.1-2,3.2     c-7.8-5.3-15.6-5.2-23.4-0.1c-2.4-2.8-3.4-4.5-2.4-7.8c1-3.1,2-6.3,2.9-9.5c2.1-1.2,4.3-2.4,6.4-3.6c3.4-1.8,6.8-1.5,10.1,0.4     C150.4,404.6,152.2,405.7,154,406.7z"></path>			<path class="st3" d="M127.6,409.3c-0.1,0.1-0.1,0.1-0.2,0.2C127.5,409.5,127.6,409.4,127.6,409.3z"></path>			<path class="st3" d="M140.1,526c0,0.1,0.1,0.1,0.1,0.2C140.2,526.1,140.1,526.1,140.1,526z"></path>			<path class="st0" d="M118.4,442.8c0.2-2.9,0.7-6.3,2.6-9.3c0.2-0.3,0.3-0.5,0.6-0.8c0.8-0.8,1.7-0.8,2.2,0.3     c1.5,3.3,3.2,6.5,4.5,9.9c1.9,4.8,3.5,9.6,5.2,14.4c0.4,1.1,0.5,2.3,0.6,3.4c0.1,0.6-0.2,0.9-0.8,0.6c-4.6-2.9-9.1-6-12.4-10.4     C118.9,448.4,118.4,446.6,118.4,442.8z"></path>			<path class="st0" d="M167.7,444.7c0.1,2.6-1.5,5.5-3.9,8c-3.2,3.4-6.9,6.1-10.8,8.5c-0.6,0.4-1,0.2-0.9-0.5     c0.2-1.3,0.3-2.7,0.7-4c2.4-8,5.6-15.7,9.2-23.2c0.1-0.3,0.3-0.6,0.5-0.8c0.6-0.8,1.3-1,1.9-0.2c0.7,0.8,1.3,1.8,1.7,2.8     C167.2,438,167.6,440.8,167.7,444.7z"></path>			<path class="st3" d="M120.1,472.6c1.5,2,3,4,4.5,6.1c0.4,0.6,0.9,1.1,1.4,1.6c1,1.2,2.3,1.4,3.8,1.1c1-0.2,1.9-0.6,3-0.9     c-1.7,1.7-3.1,3.4-5.1,4.3c-0.4,0.2-1.3,0.1-1.7-0.2c-2.2-1.7-4.3-3.4-6.3-5.2C117.5,477.2,117.7,474.6,120.1,472.6z"></path>			<path class="st3" d="M153.6,480.6c0.9,0.2,1.7,0.5,2.6,0.7c1.6,0.4,3,0.2,4-1.2c1.6-2.1,3.2-4.1,4.7-6.2c0.3-0.4,0.6-0.9,1-1.4     c2.4,1.7,2.8,4.5,0.7,6.5c-2,1.9-4.3,3.6-6.4,5.4c-0.7,0.6-1.5,0.6-2.1,0C156.5,483.3,155,481.9,153.6,480.6L153.6,480.6z"></path>			<path class="st3" d="M119.7,487.4c1.9,2.7,4.4,2.2,6.8,2.1c1.4,0,2.7-0.2,4.1-0.3c0,0.1,0.1,0.2,0.1,0.3c-2.8,1.4-5.6,2.8-8.4,4     c-0.4,0.2-1.2,0.1-1.6-0.2c-1.2-0.8-2.8-1.4-2.4-3.2C118.6,489.3,119.2,488.5,119.7,487.4z"></path>			<path class="st3" d="M155.5,489.2c1.8,0.1,3.6,0.3,5.4,0.4c2,0.1,3.9,0,5.3-1.9c0.9,0.9,1.6,1.8,1.5,3c-0.1,1.7-2.8,3.4-4.3,2.7     c-2.7-1.2-5.3-2.6-8-4C155.4,489.4,155.4,489.3,155.5,489.2z"></path>			<path class="st3" d="M139.4,501.6c-2.1,1.4-4.1,2.8-6.2,4.1c-1.4,0.8-4.6-0.2-5.5-1.6c-0.6-0.9-0.5-2.1,0.4-3.3     c0.3,0.2,0.7,0.4,1,0.7c2.4,1.7,5.1,1.3,7.7,0.7c0.8-0.2,1.6-0.4,2.5-0.6C139.4,501.6,139.4,501.6,139.4,501.6z"></path>			<path class="st3" d="M146.8,501.5c1.7,0.3,3.3,0.7,5,1c2.1,0.4,3.9-0.2,5.6-1.4c0.2-0.1,0.4-0.2,0.5-0.3c1.3,2.1,0.8,3.5-1.4,4.6     c-1.8,0.8-3.3,0.8-4.9-0.3c-1.7-1.2-3.3-2.3-5-3.5C146.7,501.6,146.8,501.6,146.8,501.5z"></path>			<path class="st3" d="M139.3,501.5c0.1,0,0.2,0,0.4-0.1c-0.1,0.1-0.2,0.1-0.2,0.2C139.4,501.6,139.4,501.6,139.3,501.5z"></path>			<path class="st3" d="M146.7,501.6c-0.1-0.1-0.2-0.1-0.2-0.2c0.1,0,0.2,0,0.4,0.1C146.8,501.6,146.7,501.6,146.7,501.6z"></path>			<path class="st3" d="M153.6,480.6c-0.1-0.1-0.1-0.1-0.2-0.2c0,0,0.1,0,0.1,0C153.5,480.5,153.5,480.6,153.6,480.6     C153.6,480.6,153.6,480.6,153.6,480.6z"></path>		</g>	</g></g></svg>