<svg style="height:40px;" class="icon-logo logo-dark text-primary" xmlns="http://www.w3.org/2000/svg" viewBox="0 0 4040 991.4" fill="currentColor">
    <path d="M437.4 963.5c25 12.4 54.2 10.1 76.3-5.9 170.1-123.4 205.8-244.4 205.8-324.2 0-107.8-59.8-192.4-118.9-261 1.5 56.4-21.3 91.7-40.9 111.4 -21.5 21.6-43.8 29.7-44 29.8 -0.3 0.1-0.6 0-0.8-0.1 -0.2-0.2-0.3-0.5-0.3-0.7 0.1-0.8 13.7-82.4 13.7-144.9 0-128.5-61.7-216.4-113.5-267.6C364.8 50.7 314.2 25.2 303.3 20c4.7 8.8 21.7 43.6 21.7 81.5 0 69.3-59 132.7-127.3 206.1C114.4 397 20 498.5 20 633.3c0 76.9 35.6 195.1 205.1 321.9 22 16.4 51.3 19 76.5 6.7 21.9-10.6 35.2-30.3 35.7-52.7l0.6-26.2c0.1-4.6-1.4-9.2-4.4-13.2 -71.1-94-70.1-119.2-68.5-157.4 0.2-3.7 0.3-7.4 0.4-11.4 1-43.2 25.5-228.4 28.3-249.4 0.2-1.4 1.6-2.5 3.3-2.5h6c1 0 1.9 0.4 2.5 1 0.5 0.5 0.8 1.2 0.8 1.9l-1.1 247.7c0 2 0.9 4 2.6 5.5 2.2 2.1 5.3 3.1 8.6 2.9 1.1-0.1 2.3-0.3 3.5-0.6 3.2-0.8 5.4-3.1 5.5-5.7l12.1-249.9c0.1-1.5 1.5-2.7 3.3-2.7h4.3c1.8 0 3.3 1.2 3.3 2.7 0.4 7.9 8.5 195 8.5 227.9 0 19.6 3.7 26.6 6.8 29 1.9 1.5 3.4 1.1 3.5 1.1 0.1 0 0.1 0 0.2 0h4.6c0.1 0 0.1 0 0.2 0 0.1 0 1.6 0.4 3.5-1.1 3.1-2.4 6.8-9.5 6.8-29 0-31.1 7.1-195.3 8.5-227.9 0.1-1.5 1.5-2.7 3.3-2.7h4.3c1.8 0 3.2 1.2 3.3 2.7l12.1 249.9c0.1 2.6 2.3 4.9 5.5 5.7 1.2 0.3 2.4 0.5 3.5 0.6 3.3 0.2 6.4-0.8 8.6-2.8 1.7-1.5 2.6-3.5 2.6-5.5l-1-247.7c0-0.7 0.3-1.3 0.8-1.8 0.6-0.6 1.6-1 2.5-1h6c1.7 0 3.1 1.1 3.3 2.5 2.8 21 27.3 206.2 28.3 249.4 0.1 4 0.3 7.7 0.4 11.4 1.6 38.1 2.6 63.3-68.5 157.4 -3 4-4.5 8.5-4.4 13.2l0.6 27.9C402.7 933.2 415.9 952.8 437.4 963.5z"></path>
    <path d="M859.7 403.5v-60.3h334.6v60.3H1063V797.4h-72.3V403.5H859.7z"></path>
    <path d="M1145.6 633.8c0-28.7 4.2-53.9 12.5-75.6 8.4-21.7 20-39.9 34.9-54.4 14.9-14.5 32.7-25.5 53.3-32.9 20.7-7.4 43.3-11.1 67.9-11.1 12.6 0 24.9 0.9 36.9 2.6 12 1.7 23.4 4 34.3 6.9 10.9 2.8 21.1 6.1 30.7 9.8 9.6 3.7 18.4 7.4 26.4 11.1V797.4h-60.2l-8.5-32.3c-6.3 4.8-12.8 9.5-19.5 14 -6.7 4.6-14 8.6-21.8 12.2 -7.8 3.6-16.4 6.5-25.7 8.6 -9.3 2.2-19.9 3.3-31.6 3.3 -18.9 0-36.3-3.5-52.1-10.6 -15.9-7-29.5-17.6-40.9-31.6 -11.4-14-20.3-31.6-26.7-52.8C1148.8 687.1 1145.6 662.3 1145.6 633.8zM1213.4 631.9c0 19.8 2 36.9 6 51.3 4 14.5 9.7 26.3 16.9 35.7 7.3 9.3 16 16.2 26.1 20.7 10.1 4.5 21.1 6.7 33.1 6.7 15.4 0 30.1-2.7 44-8.1 13.9-5.4 25.2-12.2 33.9-20.2V528.9c-1.9-0.9-4.9-1.9-8.8-3.3 -3.9-1.3-8.6-2.6-14-3.9 -5.4-1.3-11.4-2.4-17.9-3.3 -6.5-0.9-13.4-1.3-20.5-1.3 -14.6 0-27.9 2.5-40.1 7.5 -12.2 5-22.6 12.3-31.3 22 -8.7 9.7-15.4 21.6-20.2 35.8C1215.8 596.8 1213.4 613.2 1213.4 631.9z"></path>
    <path d="M1496.4 721.5c19.5 9.6 37.5 16.2 53.9 20 16.4 3.8 32.2 5.7 47.4 5.7 8.5 0 16.2-1.2 23.1-3.7 6.9-2.5 12.9-5.8 17.9-9.9 5-4.1 9-8.8 11.9-14 2.9-5.2 4.4-10.6 4.4-16.3 0-5-1-9.6-2.9-13.8 -1.9-4.2-5.6-8.4-10.9-12.5 -5.3-4.1-12.5-8.4-21.7-12.7 -9.1-4.3-20.7-9.1-34.9-14.3 -13.7-4.8-26.6-9.7-38.8-14.7 -12.2-5-22.8-11.1-31.8-18.2s-16.2-15.8-21.5-26.1c-5.3-10.2-8-22.9-8-38.1 0-15.4 3-28.9 9.1-40.6 6.1-11.6 14.5-21.3 25.1-29 10.6-7.7 23.3-13.5 38-17.4 14.7-3.9 30.6-5.9 47.7-5.9 22.2 0 42 2.2 59.6 6.5 17.6 4.4 34.3 10.6 50.2 18.9l-19.5 48.6c-15.4-6.1-29.2-10.5-41.4-13.2 -12.2-2.7-24.1-4.1-35.8-4.1 -20.4 0-36.4 3.2-47.9 9.6 -11.5 6.4-17.3 16.6-17.3 30.5 0 7 2.1 12.5 6.4 16.8 4.2 4.2 9.8 7.9 16.6 10.9 6.9 3.1 14.6 5.8 23.1 8.2 8.6 2.4 17.1 5 25.6 7.8 18 6.1 33.3 12.6 45.8 19.6 12.5 7 22.6 14.7 30.3 23.1 7.7 8.5 13.3 17.8 16.8 28 3.5 10.2 5.2 21.6 5.2 34.2 0 14.1-3 27.2-8.9 39.3 -6 12.1-14.3 22.4-24.9 31.1 -10.6 8.7-23.3 15.5-37.9 20.4 -14.7 4.9-30.8 7.3-48.4 7.3 -14.8 0-28.5-1-41.2-2.9s-24.3-4.4-34.9-7.3c-10.5-2.9-20-6.2-28.3-9.9 -8.4-3.7-15.5-7.2-21.3-10.4L1496.4 721.5z"></path>
    <path d="M1744.6 474.2l38.4-6.8 8.5-80.8h60.6v80.8h76.2v53.1h-76.2v173.7c0 7.8 0.6 14.9 1.8 21.3 1.2 6.4 3.3 11.9 6.2 16.5 2.9 4.6 6.7 8.1 11.2 10.6 4.6 2.5 10.3 3.7 17.3 3.7 11.1 0 20.3-1.3 27.7-3.9 7.4-2.6 14.6-5.3 21.5-8.1l17.6 47.2c-6.1 3.3-12.2 6.3-18.2 9 -6.1 2.7-12.5 5-19.2 6.8 -6.7 1.8-13.9 3.3-21.5 4.4 -7.6 1.1-16 1.6-25.1 1.6 -13 0-25-2.1-35.8-6.2 -10.9-4.1-20.1-10.4-27.9-18.7 -7.7-8.4-13.7-19-18.1-31.9 -4.3-12.9-6.5-28.2-6.5-45.8V520.5h-38.4V474.2z"></path>
    <path d="M2000.2 920.2c6.5-7.8 13.4-16.6 20.5-26.2 7.2-9.7 14.5-19.9 21.8-30.6 7.4-10.7 14.6-21.7 21.7-32.9 7.1-11.2 13.5-22.2 19.4-33.1h-10.4c-16.1-28-30.4-55.9-43-83.7 -12.6-27.8-23.6-55.4-33.1-82.8 -9.4-27.4-17.4-54.7-23.9-81.9 -6.5-27.3-11.8-54.5-16-81.6l74-3.3c2.8 23.7 6.8 47.8 12.1 72.3 5.2 24.5 11.4 48.7 18.4 72.3 7.1 23.7 15 46.5 23.8 68.4 8.8 21.9 18.2 42.3 28.2 60.9h3.9c12.2-22.1 22.9-45.7 32.3-70.7 9.3-25 17.4-49.7 24.3-74.3s12.4-47.9 16.6-70.2c4.2-22.3 7.2-41.9 9-58.8l74 3.3c-1.9 17.6-5 36.1-9.3 55.6 -4.2 19.4-9.3 39.3-15.1 59.5 -5.9 20.2-12.4 40.3-19.6 60.3 -7.2 20-14.7 39.3-22.5 58 -7.8 18.7-15.9 36.2-24.3 52.6 -8.4 16.4-16.7 31.1-24.9 44.2 -5 9.6-11.4 21.1-19.1 34.7 -7.7 13.6-15.9 27.6-24.6 42 -8.7 14.4-17.5 28.6-26.4 42.5 -8.9 13.9-16.9 26.1-24.1 36.5L2000.2 920.2z"></path>
    <path d="M2312.8 797.4V343.2h72.3V797.4H2312.8z"></path>
    <path d="M2437.8 633.8c0-30 4.5-55.9 13.5-77.7 9-21.8 21.2-39.9 36.5-54.1 15.3-14.2 33.1-24.8 53.4-31.8 20.3-6.9 41.9-10.4 64.7-10.4 11.5 0 23.2 0.8 35 2.5 11.8 1.6 23.3 3.9 34.4 6.7 11.1 2.8 21.6 6.1 31.6 9.8 10 3.7 19 7.5 27 11.4v293.2h-0.6l0.7 0.3v2.6c0 27.4-3.8 50.3-11.4 68.8 -7.6 18.5-18 33.3-31.3 44.6 -13.2 11.3-28.8 19.3-46.6 24.1 -17.8 4.8-36.9 7.2-57.3 7.2 -8.9 0-18.5-0.9-28.8-2.6 -10.3-1.7-20.7-4.2-31.3-7.3 -10.5-3.1-20.8-6.8-30.8-10.9 -10-4.1-19-8.6-27-13.4l19.6-45.6c11.5 6.3 25.2 11.9 41.1 16.9 15.9 5 32.3 7.7 49.2 8.2 12.4 0.2 23.9-1.2 34.7-4.4 10.8-3.1 20.1-8.4 28-15.8 7.9-7.4 14.1-17 18.6-28.8 4.5-11.8 6.7-26.3 6.7-43.5v-13.7c-6.5 4.8-13.3 9.2-20.4 13.2 -7.1 4-14.6 7.5-22.5 10.4 -7.9 2.9-16.4 5.3-25.6 7s-18.9 2.6-29.3 2.6c-20.6 0-39.1-3.7-55.4-11.1 -16.3-7.4-30.1-18.2-41.4-32.6 -11.3-14.3-19.9-32-25.9-53.1C2440.8 685.4 2437.8 661.2 2437.8 633.8zM2505.6 631.9c0 37.6 7.4 66 22.2 85.4 14.8 19.3 35.4 29 61.9 29 6.5 0 13.3-0.8 20.2-2.3s13.8-3.6 20.5-6.4c6.7-2.7 13.1-5.8 19.1-9.3 6-3.5 11.1-7.2 15.5-11.1v-189.3c-2.4-1.1-5.6-2.3-9.6-3.6 -4-1.3-8.6-2.5-13.8-3.6 -5.2-1.1-11-2-17.4-2.8 -6.4-0.8-13-1.1-19.7-1.1 -12.4 0-24.4 2.1-36.2 6.4 -11.7 4.2-22.3 10.9-31.6 20s-16.8 21-22.5 35.5C2508.4 593.3 2505.6 611 2505.6 631.9z"></path>
    <path d="M2795.8 515.6c7.4-5.2 16.9-11 28.7-17.4 11.7-6.4 25-12.5 39.9-18.2 14.9-5.7 31.1-10.5 48.5-14.3 17.5-3.8 35.8-5.7 54.9-5.7 21.7 0 39.9 3.4 54.6 10.1 14.7 6.7 26.5 15.8 35.5 27 9 11.3 15.5 24.4 19.4 39.3 3.9 14.9 5.9 30.5 5.9 46.8V797.4h-69.1V587.3c0-7.8-0.8-15.8-2.4-24.1 -1.6-8.2-4.6-15.7-8.8-22.5 -4.2-6.7-10.1-12.2-17.6-16.4 -7.5-4.2-17.2-6.3-29.2-6.3 -8.3 0-16.7 1-25.4 3.1 -8.7 2.1-17.1 4.7-25.2 7.8 -8.1 3.2-15.8 6.5-22.8 10.1s-13 6.8-17.7 9.6V797.4h-69.1V515.6z"></path>
    <path d="M3174.6 344.5c28.2 0 42.4 12 42.4 35.8 0 10.4-3.2 18.9-9.6 25.3 -6.4 6.4-17.1 9.6-32.1 9.6 -28.9 0-43.3-11.8-43.3-35.5 0-12.2 3.6-21.1 10.9-26.7C3150.1 347.3 3160.7 344.5 3174.6 344.5zM3140.4 797.4V467.3h69.1V797.4H3140.4z"></path>
    <path d="M3253 474.2l38.4-6.8 8.5-80.8h60.6v80.8h76.2v53.1h-76.2v173.7c0 7.8 0.6 14.9 1.8 21.3 1.2 6.4 3.3 11.9 6.2 16.5 2.9 4.6 6.7 8.1 11.2 10.6 4.6 2.5 10.3 3.7 17.3 3.7 11.1 0 20.3-1.3 27.7-3.9 7.4-2.6 14.6-5.3 21.5-8.1l17.6 47.2c-6.1 3.3-12.2 6.3-18.2 9 -6.1 2.7-12.5 5-19.2 6.8 -6.7 1.8-13.9 3.3-21.5 4.4 -7.6 1.1-16 1.6-25.1 1.6 -13 0-25-2.1-35.8-6.2 -10.9-4.1-20.1-10.4-27.9-18.7 -7.7-8.4-13.7-19-18.1-31.9 -4.3-12.9-6.5-28.2-6.5-45.8V520.5h-38.4V474.2z"></path>
    <path d="M3547 663.2c2 13.5 5.4 25.4 10.4 35.8 5 10.4 11.7 19.2 20.2 26.4 8.5 7.2 18.9 12.7 31.1 16.5 12.3 3.8 26.6 5.7 42.9 5.7 15.7 0 30.5-2.5 44.5-7.5 14-5 26.9-10.6 38.6-16.9l20.9 48.2c-17.8 10.2-35.9 18.1-54.4 23.6 -18.5 5.5-39.1 8.3-61.9 8.3 -52.1 0-91.9-14.8-119.4-44.3 -27.5-29.5-41.2-73-41.2-130.3 0-27.4 3.8-51.5 11.2-72.5 7.5-21 18.1-38.5 31.8-52.8 13.7-14.2 30.1-25 49.2-32.4 19.1-7.4 40.4-11.1 63.9-11.1 19.1 0 36.8 2.8 53 8.5 16.2 5.7 30.2 13.4 42 23.1 11.8 9.8 21.1 21.3 27.9 34.5 6.7 13.3 10.1 27.5 10.1 42.7 0 12.6-1.8 24.6-5.4 36 -3.6 11.4-9.7 21.5-18.4 30.1 -8.7 8.7-20.3 15.6-34.9 20.7 -14.6 5.1-32.7 7.7-54.4 7.7H3547zM3631.8 516.9c-12.6 0-23.8 2.3-33.7 7s-18.4 11.1-25.4 19.2c-7.1 8.2-12.7 17.7-17.1 28.7 -4.3 11-7.4 22.8-9.1 35.4h97.1c8.7 0 16.6-0.4 23.6-1.1 7.1-0.8 13-2.4 17.9-4.9s8.6-6 11.3-10.4c2.6-4.4 3.9-10.3 3.9-17.4 0-10-2.1-18.6-6.3-25.7 -4.2-7.2-9.7-13-16.3-17.6 -6.6-4.6-14-7.9-22-9.9C3647.5 517.9 3639.6 516.9 3631.8 516.9z"></path>
    <path d="M3812.1 508.7c35.2-24.1 70.2-39 104.9-44.8 34.8-5.7 69.1-3.5 103 6.7l-10.4 53.8c-10.2-1.9-20.6-3.3-31.3-4.1 -10.6-0.8-21.4-0.5-32.3 0.8 -10.9 1.3-21.7 3.9-32.6 7.8 -10.9 3.9-21.6 9.6-32.3 16.9V797.4h-69.1V508.7z"></path>
</svg>